<?xml version="1.0" encoding="utf-8"?>
<!-- Generator: Adobe Illustrator 24.1.3, SVG Export Plug-In . SVG Version: 6.00 Build 0)  -->
<svg version="1.1" id="Ebene_1" xmlns="http://www.w3.org/2000/svg" xmlns:xlink="http://www.w3.org/1999/xlink" x="0px" y="0px"
	 viewBox="0 0 385 100" style="enable-background:new 0 0 385 100;" xml:space="preserve">
<style type="text/css">
	.st0{fill-rule:evenodd;clip-rule:evenodd;fill:#FFFFFF;}
</style>
<g>
	<path class="st0" d="M40,49.5l8.2-42.2L0,7.3l1.9-6.8h65l-1.3,6.8H55.3l-8.2,42.2H40L40,49.5z M62.3,49.5l9.5-48.9H97l-1.4,6.9
		H77.5l-2.6,13.9h18l-1.3,6.7H73.6l-2.8,14.4h18l-1.3,7H62.3L62.3,49.5z M91.3,49.5l26.9-48.9h8.2l9.9,48.9h-7.4l-2.8-14h-19.4
		l-7.6,14H91.3L91.3,49.5z M124.8,28.6l-3.6-20.6l-10.9,20.6H124.8L124.8,28.6z M138.3,49.5l9.6-48.9H159l6.8,38.7l22.1-38.7h11.8
		l-9.5,48.9H183L191,7.6l-23.8,41.9h-6.5l-7.2-41.8l-8.1,41.8H138.3L138.3,49.5z"/>
	<path class="st0" d="M190.1,49.5h6.9l2,40.2l17-40.2h9.1l1.5,40.7l17.1-40.7h6.8l-20.9,48.9h-9.3L219.1,57l-17.7,41.4h-8.7
		L190.1,49.5L190.1,49.5z M245.4,98.4l9.5-48.9h25.3l-1.4,6.9h-18.1L258,70.3h18l-1.3,6.7h-18.1l-2.8,14.4h18l-1.3,7L245.4,98.4
		L245.4,98.4z M280.7,82.8h7.5c0,0.2,0,0.4,0,0.7c0,0.3,0,0.5,0,0.6c0,2.8,0.6,4.9,1.9,6.3c1.3,1.4,3.1,2.1,5.6,2.1
		c2.3,0,4.3-0.7,5.8-2.2c1.5-1.5,2.3-3.4,2.3-5.7c0-1.6-0.4-3-1.1-4.1c-0.8-1.1-2.4-2.4-5-3.9c-0.4-0.3-1-0.6-1.8-1.1
		c-3.2-1.8-5.5-3.4-7-4.9c-1.1-1.1-1.9-2.4-2.4-3.8c-0.5-1.4-0.8-2.9-0.8-4.6c0-4,1.4-7.3,4.2-9.9c2.8-2.6,6.3-3.9,10.6-3.9
		c4.1,0,7.3,1.1,9.7,3.4c2.4,2.3,3.5,5.3,3.5,9.2c0,0.4,0,0.7,0,0.9c0,0.2,0,0.4-0.1,0.6h-7.3c0-0.1,0-0.3,0-0.5c0-0.2,0-0.4,0-0.5
		c0-2-0.6-3.7-1.7-4.9c-1.1-1.2-2.7-1.8-4.6-1.8c-1.9,0-3.5,0.7-4.8,2c-1.3,1.3-2,2.9-2,4.7c0,2.6,2.8,5.5,8.4,8.7
		c1.1,0.7,2,1.2,2.7,1.6c2.3,1.4,4.1,3.1,5.3,5.3c1.3,2.2,1.9,4.5,1.9,7c0,4.3-1.5,7.9-4.5,10.8c-3,2.9-6.8,4.4-11.3,4.4
		c-4.8,0-8.5-1.3-11-4c-2.6-2.7-3.8-6.5-3.8-11.5L280.7,82.8L280.7,82.8z M321.5,98.4l8.2-42.2H319l1.3-6.8H385l-1.2,6.7l-46.9,0
		l-8.2,42.2H321.5L321.5,98.4z"/>
</g>
</svg>
